<svg xmlns="http://www.w3.org/2000/svg" width="375" viewBox="0 0 375 375" height="375" version="1.0"><defs><clipPath id="a"><path d="M 119.308594 140 L 188 140 L 188 200 L 119.308594 200 Z M 119.308594 140"/></clipPath><clipPath id="b"><path d="M 187 108.519531 L 255.808594 108.519531 L 255.808594 169 L 187 169 Z M 187 108.519531"/></clipPath></defs><g clip-path="url(#a)"><path fill="#0652E9" d="M 165.269531 182.492188 L 165.269531 190.777344 L 127.644531 173.351562 L 127.644531 166.628906 L 165.269531 149.203125 L 165.269531 157.488281 L 136.816406 169.910156 L 136.816406 170.066406 Z M 187.617188 140 L 124.691406 140 C 121.722656 140 119.3125 142.402344 119.3125 145.363281 L 119.3125 194.617188 C 119.3125 197.578125 121.722656 199.980469 124.691406 199.980469 L 170.148438 199.980469 L 187.617188 140"/></g><g clip-path="url(#b)"><path fill="#62E1E9" d="M 247.488281 142.132812 L 209.863281 159.324219 L 209.863281 151.039062 L 238.945312 138.613281 L 238.945312 138.457031 L 209.863281 126.035156 L 209.863281 117.75 L 247.488281 134.941406 Z M 205.085938 108.546875 L 187.617188 168.527344 L 250.4375 168.527344 C 253.410156 168.527344 255.816406 166.125 255.816406 163.164062 L 255.816406 113.910156 C 255.816406 110.949219 253.410156 108.546875 250.4375 108.546875 L 205.085938 108.546875"/></g><g fill="#FFF"><g><g><path d="M 14.171875 -21 L 2.660156 -21 L 2.660156 -16.902344 L 9.554688 -16.902344 L 9.554688 -5.984375 C 9.554688 -4.722656 8.644531 -3.78125 7.488281 -3.78125 C 6.4375 -3.78125 5.632812 -4.550781 5.460938 -5.632812 L 0.910156 -4.304688 C 1.363281 -1.46875 3.640625 0.28125 7.488281 0.28125 C 11.792969 0.28125 14.171875 -1.925781 14.171875 -5.390625 Z M 14.171875 -21" transform="translate(55.757 237.535)"/></g></g></g><g fill="#FFF"><g><g><path d="M 14.910156 0 L 19.84375 0 L 12.285156 -21 L 7.105469 -21 L -0.453125 0 L 4.480469 0 L 5.773438 -3.953125 L 13.613281 -3.953125 Z M 7 -7.804688 L 9.695312 -16.132812 L 12.390625 -7.804688 Z M 7 -7.804688" transform="translate(72.912 237.535)"/></g></g></g><g fill="#FFF"><g><g><path d="M 12.074219 0.28125 C 16.238281 0.28125 19.84375 -2.066406 21.628906 -5.496094 L 17.636719 -7.558594 C 16.625 -5.566406 14.558594 -4.234375 12.074219 -4.234375 C 8.539062 -4.234375 5.84375 -6.964844 5.84375 -10.5 C 5.84375 -14.035156 8.539062 -16.761719 12.074219 -16.761719 C 14.558594 -16.761719 16.625 -15.433594 17.636719 -13.4375 L 21.628906 -15.503906 C 19.84375 -18.933594 16.238281 -21.277344 12.074219 -21.277344 C 6.125 -21.277344 1.292969 -16.449219 1.292969 -10.5 C 1.292969 -4.550781 6.125 0.28125 12.074219 0.28125 Z M 12.074219 0.28125" transform="translate(93.531 237.535)"/></g></g></g><g fill="#FFF"><g><g><path d="M 12.074219 0.28125 C 18.058594 0.28125 22.851562 -4.550781 22.851562 -10.5 C 22.851562 -16.449219 18.058594 -21.277344 12.074219 -21.277344 C 6.125 -21.277344 1.292969 -16.449219 1.292969 -10.5 C 1.292969 -4.550781 6.125 0.28125 12.074219 0.28125 Z M 12.074219 -4.234375 C 8.539062 -4.234375 5.84375 -6.964844 5.84375 -10.5 C 5.84375 -14.035156 8.539062 -16.761719 12.074219 -16.761719 C 15.644531 -16.761719 18.339844 -14.035156 18.339844 -10.5 C 18.339844 -6.964844 15.644531 -4.234375 12.074219 -4.234375 Z M 12.074219 -4.234375" transform="translate(117.3 237.535)"/></g></g></g><g fill="#FFF"><g><g><path d="M 14.699219 -10.640625 C 16.273438 -11.480469 17.289062 -12.949219 17.289062 -15.152344 C 17.289062 -18.863281 14.488281 -21 10.953125 -21 L 2.066406 -21 L 2.066406 0 L 11.757812 0 C 15.257812 0 17.988281 -2.03125 17.988281 -5.738281 C 17.988281 -8.292969 16.660156 -9.867188 14.699219 -10.640625 Z M 12.667969 -14.664062 C 12.667969 -13.4375 11.652344 -12.390625 10.394531 -12.390625 L 6.683594 -12.390625 L 6.683594 -16.902344 L 10.394531 -16.902344 C 11.652344 -16.902344 12.667969 -15.921875 12.667969 -14.664062 Z M 11.09375 -4.09375 L 6.683594 -4.09375 L 6.683594 -8.609375 L 11.09375 -8.609375 C 12.390625 -8.609375 13.367188 -7.558594 13.367188 -6.335938 C 13.367188 -5.074219 12.390625 -4.09375 11.09375 -4.09375 Z M 11.09375 -4.09375" transform="translate(142.714 237.535)"/></g></g></g><g fill="#FFF"><g><g><path d="M 13.019531 -8.644531 C 15.503906 -9.378906 17.253906 -11.6875 17.253906 -14.558594 C 17.253906 -18.128906 14.59375 -21 10.988281 -21 L 2.066406 -21 L 2.066406 0 L 6.683594 0 L 6.683594 -8.121094 L 8.539062 -8.121094 L 13.71875 0 L 18.898438 0 Z M 10.289062 -11.933594 L 6.683594 -11.933594 L 6.683594 -16.902344 L 10.289062 -16.902344 C 11.757812 -16.902344 12.84375 -15.855469 12.84375 -14.417969 C 12.84375 -12.949219 11.757812 -11.933594 10.289062 -11.933594 Z M 10.289062 -11.933594" transform="translate(172.58 237.535)"/></g></g></g><g fill="#FFF"><g><g><path d="M 14.875 -16.9375 L 14.875 -21 L 2.238281 -21 L 2.238281 0 L 14.875 0 L 14.875 -4.058594 L 6.859375 -4.058594 L 6.859375 -8.46875 L 13.71875 -8.46875 L 13.71875 -12.527344 L 6.859375 -12.527344 L 6.859375 -16.9375 Z M 14.875 -16.9375" transform="translate(192.534 237.535)"/></g></g></g><g fill="#FFF"><g><g><path d="M 18.863281 -21 L 13.71875 -21 L 9.238281 -13.894531 L 4.757812 -21 L -0.453125 -21 L 6.929688 -9.867188 L 6.929688 0 L 11.550781 0 L 11.550781 -9.902344 Z M 18.863281 -21" transform="translate(210.073 237.535)"/></g></g></g><g fill="#FFF"><g><g><path d="M 17.148438 -21 L 17.148438 -7.105469 L 6.824219 -21 L 2.066406 -21 L 2.066406 0 L 6.683594 0 L 6.683594 -13.929688 L 16.972656 0 L 21.734375 0 L 21.734375 -21 Z M 17.148438 -21" transform="translate(229.748 237.535)"/></g></g></g><g fill="#FFF"><g><g><path d="M 12.074219 0.28125 C 18.058594 0.28125 22.851562 -4.550781 22.851562 -10.5 C 22.851562 -16.449219 18.058594 -21.277344 12.074219 -21.277344 C 6.125 -21.277344 1.292969 -16.449219 1.292969 -10.5 C 1.292969 -4.550781 6.125 0.28125 12.074219 0.28125 Z M 12.074219 -4.234375 C 8.539062 -4.234375 5.84375 -6.964844 5.84375 -10.5 C 5.84375 -14.035156 8.539062 -16.761719 12.074219 -16.761719 C 15.644531 -16.761719 18.339844 -14.035156 18.339844 -10.5 C 18.339844 -6.964844 15.644531 -4.234375 12.074219 -4.234375 Z M 12.074219 -4.234375" transform="translate(254.812 237.535)"/></g></g></g><g fill="#FFF"><g><g><path d="M 6.683594 -4.09375 L 6.683594 -21 L 2.066406 -21 L 2.066406 0 L 13.648438 0 L 13.648438 -4.09375 Z M 6.683594 -4.09375" transform="translate(280.225 237.535)"/></g></g></g><g fill="#FFF"><g><g><path d="M 2.066406 0 L 8.996094 0 C 14.769531 0 19.492188 -4.691406 19.492188 -10.5 C 19.492188 -16.308594 14.769531 -21 8.996094 -21 L 2.066406 -21 Z M 6.683594 -4.09375 L 6.683594 -16.902344 L 8.960938 -16.902344 C 12.285156 -16.902344 14.875 -14.140625 14.875 -10.5 C 14.875 -6.859375 12.285156 -4.09375 8.960938 -4.09375 Z M 6.683594 -4.09375" transform="translate(295.175 237.535)"/></g></g></g><g fill="#FFF"><g><g><path d="M 8.539062 0.28125 C 12.457031 0.28125 15.785156 -2.03125 15.785156 -5.949219 C 15.785156 -13.71875 6.125 -11.792969 6.125 -15.433594 C 6.125 -16.625 7.035156 -17.183594 8.152344 -17.183594 C 9.34375 -17.183594 10.535156 -16.519531 11.582031 -15.363281 L 14.664062 -18.304688 C 13.125 -20.089844 10.777344 -21.277344 8.1875 -21.277344 C 4.863281 -21.277344 1.46875 -19.285156 1.46875 -15.082031 C 1.46875 -7.945312 11.164062 -9.660156 11.164062 -5.984375 C 11.164062 -4.828125 10.183594 -4.058594 8.574219 -4.058594 C 6.648438 -4.058594 5.144531 -5.144531 4.375 -6.789062 L 0.558594 -4.410156 C 1.925781 -1.785156 4.863281 0.28125 8.539062 0.28125 Z M 8.539062 0.28125" transform="translate(317.194 237.535)"/></g></g></g><g fill="#FFF"><g><g><path d="M 1.09375 0 L 3.554688 0 C 6.03125 0 8.054688 -2.011719 8.054688 -4.5 C 8.054688 -6.988281 6.03125 -9 3.554688 -9 L 1.09375 -9 Z M 2.039062 -0.960938 L 2.039062 -8.039062 L 3.539062 -8.039062 C 5.535156 -8.039062 7.09375 -6.523438 7.09375 -4.5 C 7.09375 -2.476562 5.535156 -0.960938 3.539062 -0.960938 Z M 2.039062 -0.960938" transform="translate(137.318 263.179)"/></g></g></g><g fill="#FFF"><g><g><path d="M 6.089844 -8.070312 L 6.089844 -9 L 1.171875 -9 L 1.171875 0 L 6.089844 0 L 6.089844 -0.929688 L 2.128906 -0.929688 L 2.128906 -4.035156 L 5.578125 -4.035156 L 5.578125 -4.964844 L 2.128906 -4.964844 L 2.128906 -8.070312 Z M 6.089844 -8.070312" transform="translate(150.128 263.179)"/></g></g></g><g fill="#FFF"><g><g><path d="M 6.523438 -9 L 3.796875 -1.230469 L 1.066406 -9 L 0 -9 L 3.253906 0 L 4.320312 0 L 7.574219 -9 Z M 6.523438 -9" transform="translate(161.139 263.179)"/></g></g></g><g fill="#FFF"><g><g><path d="M 6.089844 -8.070312 L 6.089844 -9 L 1.171875 -9 L 1.171875 0 L 6.089844 0 L 6.089844 -0.929688 L 2.128906 -0.929688 L 2.128906 -4.035156 L 5.578125 -4.035156 L 5.578125 -4.964844 L 2.128906 -4.964844 L 2.128906 -8.070312 Z M 6.089844 -8.070312" transform="translate(172.734 263.179)"/></g></g></g><g fill="#FFF"><g><g><path d="M 2.054688 -0.960938 L 2.054688 -9 L 1.09375 -9 L 1.09375 0 L 5.398438 0 L 5.398438 -0.960938 Z M 2.054688 -0.960938" transform="translate(183.744 263.179)"/></g></g></g><g fill="#FFF"><g><g><path d="M 5.355469 0.121094 C 7.921875 0.121094 9.976562 -1.949219 9.976562 -4.5 C 9.976562 -7.050781 7.921875 -9.121094 5.355469 -9.121094 C 2.804688 -9.121094 0.734375 -7.050781 0.734375 -4.5 C 0.734375 -1.949219 2.804688 0.121094 5.355469 0.121094 Z M 5.355469 -0.839844 C 3.328125 -0.839844 1.695312 -2.460938 1.695312 -4.5 C 1.695312 -6.539062 3.328125 -8.160156 5.355469 -8.160156 C 7.394531 -8.160156 9.015625 -6.539062 9.015625 -4.5 C 9.015625 -2.460938 7.394531 -0.839844 5.355469 -0.839844 Z M 5.355469 -0.839844" transform="translate(193.299 263.179)"/></g></g></g><g fill="#FFF"><g><g><path d="M 4.320312 -9 L 1.09375 -9 L 1.09375 0 L 2.054688 0 L 2.054688 -4.003906 L 4.320312 -4.003906 C 5.714844 -4.003906 6.824219 -5.101562 6.824219 -6.496094 C 6.824219 -7.875 5.714844 -9 4.320312 -9 Z M 4.230469 -4.921875 L 2.054688 -4.921875 L 2.054688 -8.070312 L 4.230469 -8.070312 C 5.128906 -8.070312 5.863281 -7.441406 5.863281 -6.480469 C 5.863281 -5.488281 5.128906 -4.921875 4.230469 -4.921875 Z M 4.230469 -4.921875" transform="translate(208.044 263.179)"/></g></g></g><g fill="#FFF"><g><g><path d="M 6.089844 -8.070312 L 6.089844 -9 L 1.171875 -9 L 1.171875 0 L 6.089844 0 L 6.089844 -0.929688 L 2.128906 -0.929688 L 2.128906 -4.035156 L 5.578125 -4.035156 L 5.578125 -4.964844 L 2.128906 -4.964844 L 2.128906 -8.070312 Z M 6.089844 -8.070312" transform="translate(219.144 263.179)"/></g></g></g><g fill="#FFF"><g><g><path d="M 4.738281 -4.109375 C 5.925781 -4.273438 6.824219 -5.265625 6.824219 -6.480469 C 6.824219 -7.890625 5.699219 -9 4.320312 -9 L 1.09375 -9 L 1.09375 0 L 2.054688 0 L 2.054688 -4.066406 L 3.75 -4.066406 L 6.300781 0 L 7.394531 0 Z M 2.054688 -4.980469 L 2.054688 -8.039062 L 4.261719 -8.039062 C 5.160156 -8.039062 5.863281 -7.410156 5.863281 -6.511719 C 5.863281 -5.59375 5.175781 -4.980469 4.261719 -4.980469 Z M 2.054688 -4.980469" transform="translate(230.154 263.179)"/></g></g></g></svg>