<svg xmlns="http://www.w3.org/2000/svg" width="375" viewBox="0 0 375 375" height="375" version="1.0"><defs><clipPath id="a"><path d="M 0 157 L 67.125 157 L 67.125 217.96875 L 0 217.96875 Z M 0 157"/></clipPath><clipPath id="b"><path d="M 307.191406 156.8125 L 373.941406 156.8125 L 373.941406 216.0625 L 307.191406 216.0625 Z M 307.191406 156.8125"/></clipPath></defs><path fill="#FFF" d="M-37.5 -37.5H412.5V412.5H-37.5z"/><path fill="#FFF" d="M-37.5 -37.5H412.5V412.5H-37.5z"/><path fill="#0F1120" d="M-37.5 -37.5H412.5V412.5H-37.5z"/><g clip-path="url(#a)"><path fill="#0652E9" d="M 44.835938 200.441406 L 44.835938 208.722656 L 7.210938 191.296875 L 7.210938 184.578125 L 44.835938 167.152344 L 44.835938 175.4375 L 16.378906 187.859375 L 16.378906 188.015625 Z M 67.179688 157.949219 L 4.257812 157.949219 C 1.289062 157.949219 -1.121094 160.347656 -1.121094 163.3125 L -1.121094 212.566406 C -1.121094 215.527344 1.289062 217.925781 4.257812 217.925781 L 49.714844 217.925781 L 67.179688 157.949219"/></g><g fill="#FFF"><g><g><path d="M 12.148438 -18 L 2.28125 -18 L 2.28125 -14.488281 L 8.191406 -14.488281 L 8.191406 -5.128906 C 8.191406 -4.050781 7.410156 -3.238281 6.421875 -3.238281 C 5.519531 -3.238281 4.828125 -3.898438 4.679688 -4.828125 L 0.78125 -3.691406 C 1.171875 -1.261719 3.121094 0.238281 6.421875 0.238281 C 10.109375 0.238281 12.148438 -1.648438 12.148438 -4.621094 Z M 12.148438 -18" transform="translate(63.749 194.25)"/></g></g></g><g fill="#FFF"><g><g><path d="M 12.78125 0 L 17.011719 0 L 10.53125 -18 L 6.089844 -18 L -0.390625 0 L 3.839844 0 L 4.949219 -3.390625 L 11.671875 -3.390625 Z M 6 -6.691406 L 8.308594 -13.828125 L 10.621094 -6.691406 Z M 6 -6.691406" transform="translate(78.455 194.25)"/></g></g></g><g fill="#FFF"><g><g><path d="M 10.351562 0.238281 C 13.921875 0.238281 17.011719 -1.769531 18.539062 -4.710938 L 15.121094 -6.480469 C 14.25 -4.769531 12.480469 -3.628906 10.351562 -3.628906 C 7.320312 -3.628906 5.011719 -5.96875 5.011719 -9 C 5.011719 -12.03125 7.320312 -14.371094 10.351562 -14.371094 C 12.480469 -14.371094 14.25 -13.230469 15.121094 -11.519531 L 18.539062 -13.289062 C 17.011719 -16.230469 13.921875 -18.238281 10.351562 -18.238281 C 5.25 -18.238281 1.109375 -14.101562 1.109375 -9 C 1.109375 -3.898438 5.25 0.238281 10.351562 0.238281 Z M 10.351562 0.238281" transform="translate(96.131 194.25)"/></g></g></g><g fill="#FFF"><g><g><path d="M 10.351562 0.238281 C 15.480469 0.238281 19.589844 -3.898438 19.589844 -9 C 19.589844 -14.101562 15.480469 -18.238281 10.351562 -18.238281 C 5.25 -18.238281 1.109375 -14.101562 1.109375 -9 C 1.109375 -3.898438 5.25 0.238281 10.351562 0.238281 Z M 10.351562 -3.628906 C 7.320312 -3.628906 5.011719 -5.96875 5.011719 -9 C 5.011719 -12.03125 7.320312 -14.371094 10.351562 -14.371094 C 13.410156 -14.371094 15.71875 -12.03125 15.71875 -9 C 15.71875 -5.96875 13.410156 -3.628906 10.351562 -3.628906 Z M 10.351562 -3.628906" transform="translate(116.507 194.25)"/></g></g></g><g fill="#FFF"><g><g><path d="M 12.601562 -9.121094 C 13.949219 -9.839844 14.820312 -11.101562 14.820312 -12.988281 C 14.820312 -16.171875 12.421875 -18 9.390625 -18 L 1.769531 -18 L 1.769531 0 L 10.078125 0 C 13.078125 0 15.421875 -1.738281 15.421875 -4.921875 C 15.421875 -7.109375 14.28125 -8.460938 12.601562 -9.121094 Z M 10.859375 -12.570312 C 10.859375 -11.519531 9.988281 -10.621094 8.910156 -10.621094 L 5.730469 -10.621094 L 5.730469 -14.488281 L 8.910156 -14.488281 C 9.988281 -14.488281 10.859375 -13.648438 10.859375 -12.570312 Z M 9.511719 -3.511719 L 5.730469 -3.511719 L 5.730469 -7.378906 L 9.511719 -7.378906 C 10.621094 -7.378906 11.460938 -6.480469 11.460938 -5.429688 C 11.460938 -4.351562 10.621094 -3.511719 9.511719 -3.511719 Z M 9.511719 -3.511719" transform="translate(138.293 194.25)"/></g></g></g><g fill="#FFF"><g><g><path d="M 11.160156 -7.410156 C 13.289062 -8.039062 14.789062 -10.019531 14.789062 -12.480469 C 14.789062 -15.539062 12.511719 -18 9.421875 -18 L 1.769531 -18 L 1.769531 0 L 5.730469 0 L 5.730469 -6.960938 L 7.320312 -6.960938 L 11.761719 0 L 16.199219 0 Z M 8.820312 -10.230469 L 5.730469 -10.230469 L 5.730469 -14.488281 L 8.820312 -14.488281 C 10.078125 -14.488281 11.011719 -13.589844 11.011719 -12.359375 C 11.011719 -11.101562 10.078125 -10.230469 8.820312 -10.230469 Z M 8.820312 -10.230469" transform="translate(163.895 194.25)"/></g></g></g><g fill="#FFF"><g><g><path d="M 12.75 -14.519531 L 12.75 -18 L 1.921875 -18 L 1.921875 0 L 12.75 0 L 12.75 -3.480469 L 5.878906 -3.480469 L 5.878906 -7.261719 L 11.761719 -7.261719 L 11.761719 -10.738281 L 5.878906 -10.738281 L 5.878906 -14.519531 Z M 12.75 -14.519531" transform="translate(181.001 194.25)"/></g></g></g><g fill="#FFF"><g><g><path d="M 16.171875 -18 L 11.761719 -18 L 7.921875 -11.910156 L 4.078125 -18 L -0.390625 -18 L 5.941406 -8.460938 L 5.941406 0 L 9.898438 0 L 9.898438 -8.488281 Z M 16.171875 -18" transform="translate(196.037 194.25)"/></g></g></g><g fill="#FFF"><g><g><path d="M 14.699219 -18 L 14.699219 -6.089844 L 5.851562 -18 L 1.769531 -18 L 1.769531 0 L 5.730469 0 L 5.730469 -11.941406 L 14.550781 0 L 18.628906 0 L 18.628906 -18 Z M 14.699219 -18" transform="translate(212.903 194.25)"/></g></g></g><g fill="#FFF"><g><g><path d="M 10.351562 0.238281 C 15.480469 0.238281 19.589844 -3.898438 19.589844 -9 C 19.589844 -14.101562 15.480469 -18.238281 10.351562 -18.238281 C 5.25 -18.238281 1.109375 -14.101562 1.109375 -9 C 1.109375 -3.898438 5.25 0.238281 10.351562 0.238281 Z M 10.351562 -3.628906 C 7.320312 -3.628906 5.011719 -5.96875 5.011719 -9 C 5.011719 -12.03125 7.320312 -14.371094 10.351562 -14.371094 C 13.410156 -14.371094 15.71875 -12.03125 15.71875 -9 C 15.71875 -5.96875 13.410156 -3.628906 10.351562 -3.628906 Z M 10.351562 -3.628906" transform="translate(234.389 194.25)"/></g></g></g><g fill="#FFF"><g><g><path d="M 5.730469 -3.511719 L 5.730469 -18 L 1.769531 -18 L 1.769531 0 L 11.699219 0 L 11.699219 -3.511719 Z M 5.730469 -3.511719" transform="translate(256.175 194.25)"/></g></g></g><g fill="#FFF"><g><g><path d="M 1.769531 0 L 7.710938 0 C 12.660156 0 16.710938 -4.019531 16.710938 -9 C 16.710938 -13.980469 12.660156 -18 7.710938 -18 L 1.769531 -18 Z M 5.730469 -3.511719 L 5.730469 -14.488281 L 7.679688 -14.488281 C 10.53125 -14.488281 12.75 -12.121094 12.75 -9 C 12.75 -5.878906 10.53125 -3.511719 7.679688 -3.511719 Z M 5.730469 -3.511719" transform="translate(268.991 194.25)"/></g></g></g><g fill="#FFF"><g><g><path d="M 7.320312 0.238281 C 10.679688 0.238281 13.53125 -1.738281 13.53125 -5.101562 C 13.53125 -11.761719 5.25 -10.109375 5.25 -13.230469 C 5.25 -14.25 6.03125 -14.730469 6.988281 -14.730469 C 8.011719 -14.730469 9.03125 -14.160156 9.929688 -13.171875 L 12.570312 -15.691406 C 11.25 -17.21875 9.238281 -18.238281 7.019531 -18.238281 C 4.171875 -18.238281 1.261719 -16.53125 1.261719 -12.929688 C 1.261719 -6.808594 9.570312 -8.28125 9.570312 -5.128906 C 9.570312 -4.140625 8.730469 -3.480469 7.351562 -3.480469 C 5.699219 -3.480469 4.410156 -4.410156 3.75 -5.820312 L 0.480469 -3.78125 C 1.648438 -1.53125 4.171875 0.238281 7.320312 0.238281 Z M 7.320312 0.238281" transform="translate(287.867 194.25)"/></g></g></g><g clip-path="url(#b)"><path fill="#62E1E9" d="M 365.667969 190.425781 L 328.042969 207.617188 L 328.042969 199.332031 L 357.125 186.90625 L 357.125 186.75 L 328.042969 174.324219 L 328.042969 166.042969 L 365.667969 183.234375 Z M 323.265625 156.839844 L 305.796875 216.820312 L 368.621094 216.820312 C 371.589844 216.820312 374 214.417969 374 211.457031 L 374 162.203125 C 374 159.242188 371.589844 156.839844 368.621094 156.839844 L 323.265625 156.839844"/></g></svg>