<svg xmlns="http://www.w3.org/2000/svg" width="750" viewBox="0 0 750 123" height="123" version="1.0"><defs><clipPath id="a"><path d="M 3.023438 2 L 138.429688 2 L 138.429688 121.578125 L 3.023438 121.578125 Z M 3.023438 2"/></clipPath><clipPath id="b"><path d="M 614.71875 0.246094 L 746.976562 0.246094 L 746.976562 117.796875 L 614.71875 117.796875 Z M 614.71875 0.246094"/></clipPath></defs><g clip-path="url(#a)"><path fill="#0652E9" d="M 94.210938 86.800781 L 94.210938 103.234375 L 19.5625 68.664062 L 19.5625 55.328125 L 94.210938 20.757812 L 94.210938 37.195312 L 37.757812 61.839844 L 37.757812 62.152344 Z M 138.542969 2.5 L 13.707031 2.5 C 7.8125 2.5 3.035156 7.261719 3.035156 13.140625 L 3.035156 110.855469 C 3.035156 116.730469 7.8125 121.492188 13.707031 121.492188 L 103.890625 121.492188 L 138.542969 2.5"/></g><g fill="#FFF"><g><g><path d="M 24.105469 -35.710938 L 4.523438 -35.710938 L 4.523438 -28.746094 L 16.25 -28.746094 L 16.25 -10.175781 C 16.25 -8.035156 14.699219 -6.429688 12.738281 -6.429688 C 10.953125 -6.429688 9.582031 -7.738281 9.285156 -9.582031 L 1.546875 -7.320312 C 2.320312 -2.5 6.191406 0.476562 12.738281 0.476562 C 20.058594 0.476562 24.105469 -3.273438 24.105469 -9.164062 Z M 24.105469 -35.710938" transform="translate(131.735 74.52)"/></g></g></g><g fill="#FFF"><g><g><path d="M 25.355469 0 L 33.746094 0 L 20.890625 -35.710938 L 12.082031 -35.710938 L -0.773438 0 L 7.617188 0 L 9.820312 -6.726562 L 23.152344 -6.726562 Z M 11.902344 -13.273438 L 16.488281 -27.4375 L 21.070312 -13.273438 Z M 11.902344 -13.273438" transform="translate(160.911 74.52)"/></g></g></g><g fill="#FFF"><g><g><path d="M 20.535156 0.476562 C 27.617188 0.476562 33.746094 -3.511719 36.78125 -9.34375 L 29.996094 -12.855469 C 28.269531 -9.464844 24.761719 -7.203125 20.535156 -7.203125 C 14.523438 -7.203125 9.941406 -11.84375 9.941406 -17.855469 C 9.941406 -23.867188 14.523438 -28.507812 20.535156 -28.507812 C 24.761719 -28.507812 28.269531 -26.246094 29.996094 -22.855469 L 36.78125 -26.367188 C 33.746094 -32.199219 27.617188 -36.1875 20.535156 -36.1875 C 10.414062 -36.1875 2.203125 -27.972656 2.203125 -17.855469 C 2.203125 -7.738281 10.414062 0.476562 20.535156 0.476562 Z M 20.535156 0.476562" transform="translate(195.98 74.52)"/></g></g></g><g fill="#FFF"><g><g><path d="M 20.535156 0.476562 C 30.710938 0.476562 38.867188 -7.738281 38.867188 -17.855469 C 38.867188 -27.972656 30.710938 -36.1875 20.535156 -36.1875 C 10.414062 -36.1875 2.203125 -27.972656 2.203125 -17.855469 C 2.203125 -7.738281 10.414062 0.476562 20.535156 0.476562 Z M 20.535156 -7.203125 C 14.523438 -7.203125 9.941406 -11.84375 9.941406 -17.855469 C 9.941406 -23.867188 14.523438 -28.507812 20.535156 -28.507812 C 26.605469 -28.507812 31.1875 -23.867188 31.1875 -17.855469 C 31.1875 -11.84375 26.605469 -7.203125 20.535156 -7.203125 Z M 20.535156 -7.203125" transform="translate(236.405 74.52)"/></g></g></g><g fill="#FFF"><g><g><path d="M 24.996094 -18.09375 C 27.675781 -19.523438 29.402344 -22.023438 29.402344 -25.773438 C 29.402344 -32.082031 24.640625 -35.710938 18.628906 -35.710938 L 3.511719 -35.710938 L 3.511719 0 L 20 0 C 25.949219 0 30.59375 -3.453125 30.59375 -9.761719 C 30.59375 -14.105469 28.332031 -16.785156 24.996094 -18.09375 Z M 21.546875 -24.9375 C 21.546875 -22.855469 19.820312 -21.070312 17.675781 -21.070312 L 11.367188 -21.070312 L 11.367188 -28.746094 L 17.675781 -28.746094 C 19.820312 -28.746094 21.546875 -27.082031 21.546875 -24.9375 Z M 18.867188 -6.964844 L 11.367188 -6.964844 L 11.367188 -14.640625 L 18.867188 -14.640625 C 21.070312 -14.640625 22.734375 -12.855469 22.734375 -10.773438 C 22.734375 -8.628906 21.070312 -6.964844 18.867188 -6.964844 Z M 18.867188 -6.964844" transform="translate(279.627 74.52)"/></g></g></g><g fill="#FFF"><g><g><path d="M 22.140625 -14.699219 C 26.367188 -15.949219 29.34375 -19.878906 29.34375 -24.761719 C 29.34375 -30.832031 24.820312 -35.710938 18.6875 -35.710938 L 3.511719 -35.710938 L 3.511719 0 L 11.367188 0 L 11.367188 -13.808594 L 14.523438 -13.808594 L 23.332031 0 L 32.140625 0 Z M 17.5 -20.296875 L 11.367188 -20.296875 L 11.367188 -28.746094 L 17.5 -28.746094 C 20 -28.746094 21.84375 -26.960938 21.84375 -24.523438 C 21.84375 -22.023438 20 -20.296875 17.5 -20.296875 Z M 17.5 -20.296875" transform="translate(330.42 74.52)"/></g></g></g><g fill="#FFF"><g><g><path d="M 25.296875 -28.808594 L 25.296875 -35.710938 L 3.808594 -35.710938 L 3.808594 0 L 25.296875 0 L 25.296875 -6.902344 L 11.664062 -6.902344 L 11.664062 -14.402344 L 23.332031 -14.402344 L 23.332031 -21.308594 L 11.664062 -21.308594 L 11.664062 -28.808594 Z M 25.296875 -28.808594" transform="translate(364.358 74.52)"/></g></g></g><g fill="#FFF"><g><g><path d="M 32.082031 -35.710938 L 23.332031 -35.710938 L 15.714844 -23.628906 L 8.09375 -35.710938 L -0.773438 -35.710938 L 11.785156 -16.785156 L 11.785156 0 L 19.640625 0 L 19.640625 -16.84375 Z M 32.082031 -35.710938" transform="translate(394.189 74.52)"/></g></g></g><g fill="#FFF"><g><g><path d="M 29.164062 -35.710938 L 29.164062 -12.082031 L 11.605469 -35.710938 L 3.511719 -35.710938 L 3.511719 0 L 11.367188 0 L 11.367188 -23.6875 L 28.867188 0 L 36.960938 0 L 36.960938 -35.710938 Z M 29.164062 -35.710938" transform="translate(427.65 74.52)"/></g></g></g><g fill="#FFF"><g><g><path d="M 20.535156 0.476562 C 30.710938 0.476562 38.867188 -7.738281 38.867188 -17.855469 C 38.867188 -27.972656 30.710938 -36.1875 20.535156 -36.1875 C 10.414062 -36.1875 2.203125 -27.972656 2.203125 -17.855469 C 2.203125 -7.738281 10.414062 0.476562 20.535156 0.476562 Z M 20.535156 -7.203125 C 14.523438 -7.203125 9.941406 -11.84375 9.941406 -17.855469 C 9.941406 -23.867188 14.523438 -28.507812 20.535156 -28.507812 C 26.605469 -28.507812 31.1875 -23.867188 31.1875 -17.855469 C 31.1875 -11.84375 26.605469 -7.203125 20.535156 -7.203125 Z M 20.535156 -7.203125" transform="translate(470.278 74.52)"/></g></g></g><g fill="#FFF"><g><g><path d="M 11.367188 -6.964844 L 11.367188 -35.710938 L 3.511719 -35.710938 L 3.511719 0 L 23.210938 0 L 23.210938 -6.964844 Z M 11.367188 -6.964844" transform="translate(513.5 74.52)"/></g></g></g><g fill="#FFF"><g><g><path d="M 3.511719 0 L 15.296875 0 C 25.117188 0 33.152344 -7.976562 33.152344 -17.855469 C 33.152344 -27.734375 25.117188 -35.710938 15.296875 -35.710938 L 3.511719 -35.710938 Z M 11.367188 -6.964844 L 11.367188 -28.746094 L 15.238281 -28.746094 C 20.890625 -28.746094 25.296875 -24.046875 25.296875 -17.855469 C 25.296875 -11.664062 20.890625 -6.964844 15.238281 -6.964844 Z M 11.367188 -6.964844" transform="translate(538.927 74.52)"/></g></g></g><g fill="#FFF"><g><g><path d="M 14.523438 0.476562 C 21.1875 0.476562 26.84375 -3.453125 26.84375 -10.117188 C 26.84375 -23.332031 10.414062 -20.058594 10.414062 -26.246094 C 10.414062 -28.269531 11.964844 -29.222656 13.867188 -29.222656 C 15.890625 -29.222656 17.914062 -28.09375 19.699219 -26.128906 L 24.9375 -31.128906 C 22.320312 -34.164062 18.332031 -36.1875 13.925781 -36.1875 C 8.273438 -36.1875 2.5 -32.792969 2.5 -25.652344 C 2.5 -13.511719 18.988281 -16.425781 18.988281 -10.175781 C 18.988281 -8.214844 17.320312 -6.902344 14.582031 -6.902344 C 11.308594 -6.902344 8.75 -8.75 7.441406 -11.546875 L 0.953125 -7.5 C 3.273438 -3.035156 8.273438 0.476562 14.523438 0.476562 Z M 14.523438 0.476562" transform="translate(576.376 74.52)"/></g></g></g><g clip-path="url(#b)"><path fill="#62E1E9" d="M 730.734375 66.929688 L 656.085938 101.035156 L 656.085938 84.601562 L 713.78125 59.953125 L 713.78125 59.640625 L 656.085938 34.992188 L 656.085938 18.558594 L 730.734375 52.664062 Z M 646.609375 0.300781 L 611.949219 119.292969 L 736.589844 119.292969 C 742.480469 119.292969 747.257812 114.53125 747.257812 108.65625 L 747.257812 10.9375 C 747.257812 5.0625 742.480469 0.300781 736.589844 0.300781 L 646.609375 0.300781"/></g></svg>