<svg xmlns="http://www.w3.org/2000/svg" width="375" viewBox="0 0 375 46.5" height="46.5" version="1.0"><defs><clipPath id="a"><path d="M 2 2 L 51.710938 2 L 51.710938 45.894531 L 2 45.894531 Z M 2 2"/></clipPath><clipPath id="b"><path d="M 324.316406 0 L 372.550781 0 L 372.550781 43.039062 L 324.316406 43.039062 Z M 324.316406 0"/></clipPath></defs><g clip-path="url(#a)"><path fill="#0652E9" d="M 35.476562 33.289062 L 35.476562 39.332031 L 8.066406 26.617188 L 8.066406 21.714844 L 35.476562 8.996094 L 35.476562 15.042969 L 14.746094 24.109375 L 14.746094 24.222656 Z M 51.753906 2.28125 L 5.917969 2.28125 C 3.753906 2.28125 2 4.03125 2 6.195312 L 2 42.136719 C 2 44.296875 3.753906 46.050781 5.917969 46.050781 L 39.027344 46.050781 L 51.753906 2.28125"/></g><g fill="#FFF"><g><g><path d="M 14.28125 -21.160156 L 2.679688 -21.160156 L 2.679688 -17.035156 L 9.628906 -17.035156 L 9.628906 -6.03125 C 9.628906 -4.761719 8.710938 -3.808594 7.546875 -3.808594 C 6.488281 -3.808594 5.679688 -4.585938 5.5 -5.679688 L 0.917969 -4.335938 C 1.375 -1.480469 3.667969 0.28125 7.546875 0.28125 C 11.886719 0.28125 14.28125 -1.941406 14.28125 -5.429688 Z M 14.28125 -21.160156" transform="translate(47.511 32.043)"/></g></g></g><g fill="#FFF"><g><g><path d="M 15.023438 0 L 19.996094 0 L 12.378906 -21.160156 L 7.160156 -21.160156 L -0.457031 0 L 4.515625 0 L 5.820312 -3.984375 L 13.71875 -3.984375 Z M 7.054688 -7.863281 L 9.769531 -16.257812 L 12.484375 -7.863281 Z M 7.054688 -7.863281" transform="translate(64.798 32.043)"/></g></g></g><g fill="#FFF"><g><g><path d="M 12.167969 0.28125 C 16.363281 0.28125 19.996094 -2.082031 21.796875 -5.535156 L 17.773438 -7.617188 C 16.75 -5.609375 14.671875 -4.265625 12.167969 -4.265625 C 8.605469 -4.265625 5.890625 -7.019531 5.890625 -10.578125 C 5.890625 -14.140625 8.605469 -16.894531 12.167969 -16.894531 C 14.671875 -16.894531 16.75 -15.550781 17.773438 -13.542969 L 21.796875 -15.625 C 19.996094 -19.078125 16.363281 -21.441406 12.167969 -21.441406 C 6.171875 -21.441406 1.304688 -16.574219 1.304688 -10.578125 C 1.304688 -4.585938 6.171875 0.28125 12.167969 0.28125 Z M 12.167969 0.28125" transform="translate(85.576 32.043)"/></g></g></g><g fill="#FFF"><g><g><path d="M 12.167969 0.28125 C 18.199219 0.28125 23.027344 -4.585938 23.027344 -10.578125 C 23.027344 -16.574219 18.199219 -21.441406 12.167969 -21.441406 C 6.171875 -21.441406 1.304688 -16.574219 1.304688 -10.578125 C 1.304688 -4.585938 6.171875 0.28125 12.167969 0.28125 Z M 12.167969 -4.265625 C 8.605469 -4.265625 5.890625 -7.019531 5.890625 -10.578125 C 5.890625 -14.140625 8.605469 -16.894531 12.167969 -16.894531 C 15.765625 -16.894531 18.480469 -14.140625 18.480469 -10.578125 C 18.480469 -7.019531 15.765625 -4.265625 12.167969 -4.265625 Z M 12.167969 -4.265625" transform="translate(109.528 32.043)"/></g></g></g><g fill="#FFF"><g><g><path d="M 14.8125 -10.722656 C 16.398438 -11.566406 17.421875 -13.046875 17.421875 -15.269531 C 17.421875 -19.007812 14.601562 -21.160156 11.039062 -21.160156 L 2.082031 -21.160156 L 2.082031 0 L 11.851562 0 C 15.375 0 18.128906 -2.046875 18.128906 -5.785156 C 18.128906 -8.359375 16.785156 -9.945312 14.8125 -10.722656 Z M 12.765625 -14.777344 C 12.765625 -13.542969 11.742188 -12.484375 10.472656 -12.484375 L 6.734375 -12.484375 L 6.734375 -17.035156 L 10.472656 -17.035156 C 11.742188 -17.035156 12.765625 -16.046875 12.765625 -14.777344 Z M 11.179688 -4.125 L 6.734375 -4.125 L 6.734375 -8.675781 L 11.179688 -8.675781 C 12.484375 -8.675781 13.472656 -7.617188 13.472656 -6.382812 C 13.472656 -5.113281 12.484375 -4.125 11.179688 -4.125 Z M 11.179688 -4.125" transform="translate(135.137 32.043)"/></g></g></g><g fill="#FFF"><g><g><path d="M 13.121094 -8.710938 C 15.625 -9.453125 17.386719 -11.777344 17.386719 -14.671875 C 17.386719 -18.269531 14.707031 -21.160156 11.074219 -21.160156 L 2.082031 -21.160156 L 2.082031 0 L 6.734375 0 L 6.734375 -8.183594 L 8.605469 -8.183594 L 13.824219 0 L 19.042969 0 Z M 10.367188 -12.027344 L 6.734375 -12.027344 L 6.734375 -17.035156 L 10.367188 -17.035156 C 11.851562 -17.035156 12.941406 -15.976562 12.941406 -14.53125 C 12.941406 -13.046875 11.851562 -12.027344 10.367188 -12.027344 Z M 10.367188 -12.027344" transform="translate(165.232 32.043)"/></g></g></g><g fill="#FFF"><g><g><path d="M 14.988281 -17.070312 L 14.988281 -21.160156 L 2.257812 -21.160156 L 2.257812 0 L 14.988281 0 L 14.988281 -4.089844 L 6.914062 -4.089844 L 6.914062 -8.535156 L 13.824219 -8.535156 L 13.824219 -12.625 L 6.914062 -12.625 L 6.914062 -17.070312 Z M 14.988281 -17.070312" transform="translate(185.34 32.043)"/></g></g></g><g fill="#FFF"><g><g><path d="M 19.007812 -21.160156 L 13.824219 -21.160156 L 9.308594 -14 L 4.796875 -21.160156 L -0.457031 -21.160156 L 6.984375 -9.945312 L 6.984375 0 L 11.636719 0 L 11.636719 -9.980469 Z M 19.007812 -21.160156" transform="translate(203.015 32.043)"/></g></g></g><g fill="#FFF"><g><g><path d="M 17.28125 -21.160156 L 17.28125 -7.160156 L 6.878906 -21.160156 L 2.082031 -21.160156 L 2.082031 0 L 6.734375 0 L 6.734375 -14.035156 L 17.105469 0 L 21.902344 0 L 21.902344 -21.160156 Z M 17.28125 -21.160156" transform="translate(222.84 32.043)"/></g></g></g><g fill="#FFF"><g><g><path d="M 12.167969 0.28125 C 18.199219 0.28125 23.027344 -4.585938 23.027344 -10.578125 C 23.027344 -16.574219 18.199219 -21.441406 12.167969 -21.441406 C 6.171875 -21.441406 1.304688 -16.574219 1.304688 -10.578125 C 1.304688 -4.585938 6.171875 0.28125 12.167969 0.28125 Z M 12.167969 -4.265625 C 8.605469 -4.265625 5.890625 -7.019531 5.890625 -10.578125 C 5.890625 -14.140625 8.605469 -16.894531 12.167969 -16.894531 C 15.765625 -16.894531 18.480469 -14.140625 18.480469 -10.578125 C 18.480469 -7.019531 15.765625 -4.265625 12.167969 -4.265625 Z M 12.167969 -4.265625" transform="translate(248.097 32.043)"/></g></g></g><g fill="#FFF"><g><g><path d="M 6.734375 -4.125 L 6.734375 -21.160156 L 2.082031 -21.160156 L 2.082031 0 L 13.753906 0 L 13.753906 -4.125 Z M 6.734375 -4.125" transform="translate(273.706 32.043)"/></g></g></g><g fill="#FFF"><g><g><path d="M 2.082031 0 L 9.0625 0 C 14.882812 0 19.644531 -4.726562 19.644531 -10.578125 C 19.644531 -16.433594 14.882812 -21.160156 9.0625 -21.160156 L 2.082031 -21.160156 Z M 6.734375 -4.125 L 6.734375 -17.035156 L 9.027344 -17.035156 C 12.378906 -17.035156 14.988281 -14.246094 14.988281 -10.578125 C 14.988281 -6.914062 12.378906 -4.125 9.027344 -4.125 Z M 6.734375 -4.125" transform="translate(288.772 32.043)"/></g></g></g><g fill="#FFF"><g><g><path d="M 8.605469 0.28125 C 12.554688 0.28125 15.90625 -2.046875 15.90625 -5.996094 C 15.90625 -13.824219 6.171875 -11.886719 6.171875 -15.550781 C 6.171875 -16.75 7.089844 -17.316406 8.21875 -17.316406 C 9.417969 -17.316406 10.617188 -16.644531 11.671875 -15.480469 L 14.777344 -18.445312 C 13.226562 -20.242188 10.863281 -21.441406 8.253906 -21.441406 C 4.902344 -21.441406 1.480469 -19.433594 1.480469 -15.199219 C 1.480469 -8.003906 11.25 -9.734375 11.25 -6.03125 C 11.25 -4.867188 10.261719 -4.089844 8.640625 -4.089844 C 6.699219 -4.089844 5.183594 -5.183594 4.410156 -6.839844 L 0.5625 -4.445312 C 1.941406 -1.796875 4.902344 0.28125 8.605469 0.28125 Z M 8.605469 0.28125" transform="translate(310.96 32.043)"/></g></g></g><g clip-path="url(#b)"><path fill="#62E1E9" d="M 366.996094 24.53125 L 339.589844 37.078125 L 339.589844 31.03125 L 360.773438 21.964844 L 360.773438 21.851562 L 339.589844 12.785156 L 339.589844 6.742188 L 366.996094 19.285156 Z M 336.109375 0.0234375 L 323.382812 43.792969 L 369.144531 43.792969 C 371.308594 43.792969 373.0625 42.042969 373.0625 39.878906 L 373.0625 3.9375 C 373.0625 1.777344 371.308594 0.0234375 369.144531 0.0234375 L 336.109375 0.0234375"/></g></svg>